<svg width="192" height="204" viewBox="0 0 192 204" fill="none" xmlns="http://www.w3.org/2000/svg">
<path fill-rule="evenodd" clip-rule="evenodd" d="M99.8544 168.98L70.2002 186.451L75.0625 203.951H90.1362L99.8544 168.98Z" fill="#C3504D"/>
<path fill-rule="evenodd" clip-rule="evenodd" d="M69.2434 183.001L101.19 164.179L104.596 151.92L66.7957 174.192L69.2434 183.001Z" fill="#C3504D"/>
<path fill-rule="evenodd" clip-rule="evenodd" d="M65.8358 170.743L105.931 147.121L109.337 134.862L63.3865 161.933L65.8358 170.743Z" fill="#C3504D"/>
<path fill-rule="evenodd" clip-rule="evenodd" d="M62.4282 158.484L110.671 130.061L114.08 117.802L59.9814 149.674L62.4282 158.484Z" fill="#C3504D"/>
<path fill-rule="evenodd" clip-rule="evenodd" d="M59.0206 146.225L107.317 117.771H89.9227L56.5735 137.417L59.0206 146.225Z" fill="#C3504D"/>
<path fill-rule="evenodd" clip-rule="evenodd" d="M55.6127 133.961L83.0937 117.77H51.1143L55.6127 133.961Z" fill="#C3504D"/>
<path fill-rule="evenodd" clip-rule="evenodd" d="M50.86 114.277H114.343C116.259 114.277 118.004 113.476 119.269 112.184C120.535 110.892 121.32 109.113 121.32 107.158V93.3047H53.6071C52.6624 93.3047 51.8957 92.5223 51.8957 91.5583C51.8957 90.5943 52.6624 89.8119 53.6071 89.8119H121.32V87.3811C121.32 85.4259 120.535 83.6461 119.269 82.3545C118.004 81.063 116.259 80.2617 114.343 80.2617H110.342H110.295H50.8577C48.9418 80.2617 47.1977 81.063 45.932 82.3545C44.6663 83.6461 43.8811 85.4259 43.8811 87.3811V107.157C43.8811 109.112 44.6663 110.892 45.932 112.184C47.1977 113.475 48.9418 114.276 50.8577 114.276L50.86 114.277Z" fill="#C3504D"/>
<path fill-rule="evenodd" clip-rule="evenodd" d="M65.2603 76.7734H110.074L112.724 75.9388C114.568 75.3587 116.267 73.9545 117.519 72.1601C118.778 70.3531 119.561 68.1789 119.561 66.0717C119.561 65.3227 119.465 64.6466 119.287 64.0582C118.995 63.0901 118.478 62.3181 117.805 61.7943C117.153 61.2894 116.329 61.0098 115.396 61.0098C115.245 61.0098 115.09 61.016 114.934 61.0306C114.54 61.2122 114.137 61.3666 113.728 61.4959L65.2621 76.7738L65.2603 76.7734Z" fill="#C3504D"/>
<path fill-rule="evenodd" clip-rule="evenodd" d="M57.1519 75.4655L112.726 57.9468C113.147 57.8132 113.56 57.7131 113.967 57.6421C115.325 56.9202 116.556 55.7705 117.521 54.3871C118.781 52.5802 119.564 50.406 119.564 48.2988C119.564 47.5498 119.468 46.8737 119.29 46.2853C118.997 45.3171 118.48 44.5451 117.807 44.0214C117.155 43.5144 116.331 43.2368 115.399 43.2368C114.865 43.2368 114.305 43.3224 113.73 43.5039L110.6 44.4909C110.583 44.4971 110.567 44.5013 110.551 44.5055L61.7351 59.894L58.1568 61.0228C56.3125 61.6028 54.6134 63.0092 53.362 64.8015C52.1025 66.6085 51.3193 68.7826 51.3193 70.8898C51.3193 71.6389 51.4154 72.315 51.5933 72.9033C51.8857 73.8715 52.403 74.6435 53.0757 75.1672C53.728 75.6722 54.552 75.9518 55.4844 75.9518C55.6378 75.9518 55.7932 75.9456 55.9506 75.9309C56.3473 75.7494 56.7501 75.5929 57.1529 75.4656L57.1519 75.4655Z" fill="#C3504D"/>
<path fill-rule="evenodd" clip-rule="evenodd" d="M60.7321 56.5662L109.548 41.1777L109.586 41.1652C109.591 41.1631 109.595 41.1631 109.597 41.161C111.153 40.656 112.588 39.4604 113.651 37.9372C114.735 36.3849 115.408 34.5174 115.408 32.7126C115.408 32.0741 115.326 31.5024 115.177 31.0058C114.933 30.1983 114.504 29.5556 113.948 29.1237C113.412 28.7085 112.731 28.479 111.958 28.479C111.508 28.479 111.036 28.552 110.554 28.7044L61.7381 44.0929C60.1636 44.5895 58.7098 45.7934 57.6344 47.3333C56.5507 48.8856 55.8779 50.7531 55.8779 52.5579C55.8779 53.1964 55.9597 53.7681 56.109 54.2647C56.3523 55.0722 56.7817 55.7149 57.3379 56.1468C57.8736 56.562 58.5545 56.7915 59.3274 56.7915C59.7772 56.7915 60.2495 56.7185 60.7321 56.5661L60.7321 56.5662Z" fill="#C3504D"/>
<path fill-rule="evenodd" clip-rule="evenodd" d="M64.0393 39.6463L105.567 26.5552C106.851 26.1505 108.042 25.1614 108.925 23.897C109.816 22.62 110.37 21.0843 110.37 19.6028C110.37 19.0854 110.305 18.6243 110.186 18.2278C109.994 17.5956 109.661 17.0927 109.229 16.7568C108.819 16.4376 108.293 16.2623 107.692 16.2623C107.332 16.2623 106.956 16.3207 106.571 16.4417C104.77 17.0093 103.365 17.4704 102.247 17.8356C99.329 18.7912 98.1022 19.1939 97.1985 18.9289C95.4707 18.4219 95.5913 17.5351 95.7999 16.0099C95.8939 15.3297 96.0432 14.2301 95.4788 12.7778C94.9472 11.409 93.7081 9.73146 92.2666 7.78051C90.639 5.5792 88.7722 3.05238 87.1957 0C83.7238 5.28104 78.8881 7.37776 74.9152 9.10361C70.9832 10.8104 68.1491 12.0394 69.9956 16.7906C71.1059 19.6492 73.5289 20.8406 74.9214 21.525C76.5817 22.3408 77.6347 22.8583 76.9743 24.6402C76.4897 25.9443 74.2548 26.6454 68.1573 28.5546L65.0433 29.5331C63.7592 29.9379 62.5691 30.927 61.6858 32.1914C60.7943 33.4684 60.2402 35.0041 60.2402 36.4856C60.2402 37.003 60.3057 37.4641 60.4243 37.8606C60.6165 38.4928 60.9497 38.9957 61.3812 39.3316C61.7922 39.6508 62.3177 39.8261 62.9188 39.8261C63.2787 39.8261 63.6549 39.7677 64.0393 39.6467L64.0393 39.6463Z" fill="#C3504D"/>
<path fill-rule="evenodd" clip-rule="evenodd" d="M25.2897 70.5404C26.9439 65.2448 28.5245 59.9909 29.3219 55.192C30.1643 50.1175 30.1336 45.5606 28.3588 42.0427C27.4857 40.3129 26.0074 39.1069 24.3226 38.5582C22.6419 38.0094 20.7525 38.1137 19.0573 39.0047C17.5115 39.8164 16.5648 40.7887 16.027 42.0197C15.4381 43.3655 15.2561 45.1057 15.2827 47.3196H15.2888C15.3011 48.2836 14.5425 49.0744 13.5978 49.0869C13.1725 49.0911 12.782 48.9387 12.4794 48.68C10.7619 47.4072 9.2958 46.5705 7.91353 46.2867C6.61717 46.0197 5.29018 46.2408 3.74439 47.0546C2.04932 47.9455 0.867489 49.4541 0.329754 51.1734C-0.207982 52.8885 -0.10577 54.8165 0.767321 56.5465C2.54416 60.0665 6.15933 62.7352 10.6924 64.9781C14.9883 67.1043 20.1003 68.8424 25.2876 70.543L25.2897 70.5404Z" fill="#C3504D"/>
<path fill-rule="evenodd" clip-rule="evenodd" d="M152.906 25.4946C153.945 31.748 156.022 38.5921 158.177 45.4774C171.956 40.9663 185.396 36.2963 189.944 27.4309L189.954 27.408L189.956 27.4017L189.972 27.3704L189.974 27.3662L189.985 27.3475L189.989 27.3495C191.154 25.0418 191.291 22.4691 190.574 20.178C189.864 17.9161 188.322 15.9277 186.11 14.7322L186.102 14.7281L186.081 14.7197L186.063 14.7114L186.042 14.7009L186.032 14.6968L186.014 14.6863L186.016 14.6822C183.955 13.5993 182.178 13.3051 180.428 13.666C178.591 14.0437 176.669 15.1391 174.43 16.8021C174.128 17.0609 173.737 17.2132 173.312 17.209C172.367 17.1965 171.611 16.4057 171.621 15.4417H171.627C171.662 12.5685 171.421 10.3004 170.644 8.52278C169.928 6.88901 168.693 5.5995 166.695 4.52702C166.626 4.49572 166.556 4.46025 166.489 4.41852C164.254 3.27719 161.774 3.15198 159.562 3.87395C157.347 4.59591 155.401 6.16917 154.229 8.42053C154.2 8.49147 154.165 8.55824 154.124 8.62501C151.869 13.1778 151.83 19.0159 152.908 25.4969L152.906 25.4946Z" fill="#C3504D"/>
</svg>
