<svg width="39" height="40" viewBox="0 0 39 40" fill="none" xmlns="http://www.w3.org/2000/svg">
<path fill-rule="evenodd" clip-rule="evenodd" d="M19.9848 33.1416L14.0498 36.568L15.023 40.0003H18.0398L19.9848 33.1416Z" fill="white"/>
<path fill-rule="evenodd" clip-rule="evenodd" d="M13.8583 35.8912L20.252 32.1996L20.9338 29.7954L13.3684 34.1635L13.8583 35.8912Z" fill="white"/>
<path fill-rule="evenodd" clip-rule="evenodd" d="M13.1763 33.4873L21.2008 28.8544L21.8826 26.4502L12.6861 31.7595L13.1763 33.4873Z" fill="white"/>
<path fill-rule="evenodd" clip-rule="evenodd" d="M12.4943 31.0827L22.1496 25.5082L22.8318 23.104L12.0046 29.3549L12.4943 31.0827Z" fill="white"/>
<path fill-rule="evenodd" clip-rule="evenodd" d="M11.8123 28.6783L21.4782 23.0977H17.997L11.3225 26.9509L11.8123 28.6783Z" fill="white"/>
<path fill-rule="evenodd" clip-rule="evenodd" d="M11.1303 26.2732L16.6303 23.0977H10.23L11.1303 26.2732Z" fill="white"/>
<path fill-rule="evenodd" clip-rule="evenodd" d="M10.1791 22.4125H22.8846C23.2681 22.4125 23.6171 22.2553 23.8704 22.002C24.1238 21.7487 24.2809 21.3996 24.2809 21.0162V18.2993H10.7289C10.5398 18.2993 10.3864 18.1458 10.3864 17.9568C10.3864 17.7677 10.5398 17.6142 10.7289 17.6142H24.2809V17.1375C24.2809 16.754 24.1238 16.405 23.8704 16.1517C23.6171 15.8984 23.2681 15.7412 22.8846 15.7412H22.0838H22.0743H10.1786C9.79519 15.7412 9.44612 15.8984 9.19281 16.1517C8.93949 16.405 8.78235 16.754 8.78235 17.1375V21.0161C8.78235 21.3995 8.93949 21.7486 9.19281 22.0019C9.44612 22.2552 9.79519 22.4124 10.1786 22.4124L10.1791 22.4125Z" fill="white"/>
<path fill-rule="evenodd" clip-rule="evenodd" d="M13.0611 15.0575H22.0301L22.5604 14.8938C22.9295 14.78 23.2696 14.5046 23.5201 14.1527C23.7721 13.7983 23.9289 13.3719 23.9289 12.9586C23.9289 12.8117 23.9096 12.6791 23.874 12.5637C23.8155 12.3738 23.712 12.2224 23.5774 12.1197C23.4468 12.0207 23.2819 11.9658 23.0953 11.9658C23.065 11.9658 23.0339 11.967 23.0028 11.9699C22.9238 12.0055 22.8432 12.0358 22.7614 12.0612L13.0615 15.0576L13.0611 15.0575Z" fill="white"/>
<path fill-rule="evenodd" clip-rule="evenodd" d="M11.4383 14.8009L22.5609 11.365C22.6452 11.3388 22.7279 11.3192 22.8093 11.3052C23.081 11.1636 23.3274 10.9382 23.5205 10.6668C23.7726 10.3125 23.9293 9.88604 23.9293 9.47277C23.9293 9.32586 23.9101 9.19326 23.8745 9.07787C23.816 8.88799 23.7124 8.73657 23.5778 8.63386C23.4473 8.53441 23.2824 8.47998 23.0957 8.47998C22.9889 8.47998 22.8768 8.49676 22.7618 8.53236L22.1353 8.72593C22.132 8.72716 22.1287 8.72798 22.1255 8.72879L12.3556 11.7469L11.6394 11.9683C11.2703 12.082 10.9303 12.3579 10.6798 12.7094C10.4277 13.0638 10.271 13.4902 10.271 13.9035C10.271 14.0504 10.2902 14.183 10.3258 14.2984C10.3844 14.4882 10.4879 14.6396 10.6225 14.7424C10.7531 14.8414 10.918 14.8962 11.1046 14.8962C11.1353 14.8962 11.1664 14.895 11.1979 14.8921C11.2773 14.8565 11.3579 14.8259 11.4385 14.8009L11.4383 14.8009Z" fill="white"/>
<path fill-rule="evenodd" clip-rule="evenodd" d="M12.1549 11.0941L21.9247 8.07599L21.9325 8.07353C21.9333 8.07312 21.9341 8.07312 21.9346 8.07271C22.246 7.97368 22.5332 7.73919 22.7461 7.44046C22.9629 7.136 23.0976 6.76974 23.0976 6.41576C23.0976 6.29054 23.0812 6.17841 23.0513 6.08101C23.0026 5.92265 22.9167 5.79661 22.8054 5.7119C22.6982 5.63046 22.5619 5.58545 22.4072 5.58545C22.3172 5.58545 22.2227 5.59977 22.1261 5.62965L12.3562 8.64773C12.0411 8.74513 11.7501 8.98125 11.5349 9.28326C11.318 9.58772 11.1833 9.95397 11.1833 10.308C11.1833 10.4332 11.1997 10.5453 11.2296 10.6427C11.2783 10.8011 11.3642 10.9271 11.4755 11.0118C11.5828 11.0933 11.719 11.1383 11.8737 11.1383C11.9638 11.1383 12.0583 11.1239 12.1549 11.0941L12.1549 11.0941Z" fill="white"/>
<path fill-rule="evenodd" clip-rule="evenodd" d="M12.8168 7.77568L21.1282 5.20818C21.3852 5.12879 21.6234 4.93481 21.8001 4.68682C21.9786 4.43637 22.0895 4.13518 22.0895 3.84463C22.0895 3.74314 22.0764 3.6527 22.0526 3.57495C22.0142 3.45095 21.9475 3.35233 21.8611 3.28645C21.7789 3.22383 21.6737 3.18946 21.5534 3.18946C21.4814 3.18946 21.4061 3.20092 21.3291 3.22465C20.9686 3.33596 20.6875 3.4264 20.4636 3.49802C19.8797 3.68545 19.6341 3.76443 19.4532 3.71246C19.1074 3.61301 19.1316 3.43909 19.1733 3.13995C19.1921 3.00655 19.222 2.79089 19.1091 2.50606C19.0027 2.23761 18.7547 1.90859 18.4662 1.52596C18.1404 1.09423 17.7668 0.598651 17.4513 0C16.7564 1.03575 15.7886 1.44697 14.9935 1.78546C14.2065 2.1202 13.6393 2.36124 14.0089 3.29308C14.2311 3.85373 14.716 4.08739 14.9947 4.22162C15.327 4.38162 15.5378 4.48312 15.4056 4.83259C15.3086 5.08836 14.8613 5.22586 13.641 5.6003L13.0177 5.79222C12.7607 5.87161 12.5226 6.06559 12.3458 6.31358C12.1674 6.56402 12.0565 6.86521 12.0565 7.15577C12.0565 7.25726 12.0696 7.34769 12.0933 7.42545C12.1318 7.54944 12.1985 7.64806 12.2848 7.71395C12.3671 7.77656 12.4722 7.81094 12.5925 7.81094C12.6646 7.81094 12.7399 7.79948 12.8168 7.77574L12.8168 7.77568Z" fill="white"/>
<path fill-rule="evenodd" clip-rule="evenodd" d="M5.06146 13.8346C5.39253 12.796 5.70885 11.7656 5.86845 10.8244C6.03705 9.82918 6.03091 8.93545 5.67571 8.24549C5.50096 7.90624 5.2051 7.66971 4.8679 7.56209C4.53152 7.45447 4.15339 7.47493 3.8141 7.64966C3.50473 7.80885 3.31526 7.99955 3.20762 8.24099C3.08977 8.50494 3.05334 8.84623 3.05866 9.28043H3.05989C3.06235 9.46949 2.91052 9.62459 2.72146 9.62704C2.63634 9.62786 2.55818 9.59799 2.49761 9.54725C2.15387 9.29762 1.86045 9.13352 1.58381 9.07786C1.32435 9.02548 1.05877 9.06886 0.749399 9.22846C0.410149 9.4032 0.173618 9.69907 0.0659965 10.0363C-0.0416253 10.3726 -0.0211687 10.7508 0.153571 11.0901C0.509185 11.7804 1.23272 12.3038 2.13996 12.7437C2.99974 13.1607 4.02284 13.5016 5.06103 13.8351L5.06146 13.8346Z" fill="white"/>
<path fill-rule="evenodd" clip-rule="evenodd" d="M30.6024 5.00034C30.8103 6.22678 31.2261 7.5691 31.6573 8.91948C34.4151 8.03473 37.105 7.11883 38.0151 5.3801L38.0172 5.3756L38.0176 5.37437L38.0209 5.36823L38.0213 5.36741L38.0233 5.36373L38.0241 5.36414C38.2574 4.91154 38.2848 4.40696 38.1412 3.9576C37.9992 3.514 37.6906 3.12401 37.2478 2.88956L37.2462 2.88874L37.2421 2.8871L37.2384 2.88547L37.2343 2.88342L37.2323 2.8826L37.2286 2.88055L37.229 2.87974C36.8165 2.66735 36.4609 2.60965 36.1106 2.68045C35.7431 2.75452 35.3584 2.96936 34.9103 3.29552C34.8498 3.34626 34.7716 3.37613 34.6865 3.37531C34.4974 3.37286 34.346 3.21776 34.348 3.0287H34.3493C34.3562 2.4652 34.3079 2.02037 34.1524 1.67172C34.0092 1.35129 33.762 1.09839 33.3622 0.888049C33.3483 0.88191 33.3344 0.874953 33.3209 0.866769C32.8736 0.642924 32.3772 0.618368 31.9345 0.759964C31.4913 0.90156 31.1017 1.21012 30.8672 1.65167C30.8614 1.66558 30.8545 1.67867 30.8463 1.69177C30.3949 2.5847 30.3871 3.7297 30.6028 5.00078L30.6024 5.00034Z" fill="white"/>
</svg>
